<svg xmlns="http://www.w3.org/2000/svg" width="22" height="25" viewBox="0 0 22 25">
  <metadata><?xpacket begin="﻿" id="W5M0MpCehiHzreSzNTczkc9d"?>
<x:xmpmeta xmlns:x="adobe:ns:meta/" x:xmptk="Adobe XMP Core 5.6-c140 79.160451, 2017/05/06-01:08:21        ">
   <rdf:RDF xmlns:rdf="http://www.w3.org/1999/02/22-rdf-syntax-ns#">
      <rdf:Description rdf:about=""/>
   </rdf:RDF>
</x:xmpmeta>
                                                                                                    
                                                                                                    
                                                                                                    
                                                                                                    
                                                                                                    
                                                                                                    
                                                                                                    
                                                                                                    
                                                                                                    
                                                                                                    
                                                                                                    
                                                                                                    
                                                                                                    
                                                                                                    
                                                                                                    
                                                                                                    
                                                                                                    
                                                                                                    
                                                                                                    
                                                                                                    
                           
<?xpacket end="w"?></metadata>
<defs>
    <style>
      .cls-1 {
        fill: #8596a8;
        fill-rule: evenodd;
      }
    </style>
  </defs>
  <path id="custom-permission" class="cls-1" d="M275.015,1073.94a10.326,10.326,0,0,1-4.8,1.23,10.022,10.022,0,0,0,1.881-.75c3.635-1.93,5.3-5.79,3.716-8.62s-5.812-3.56-9.447-1.63a7.77,7.77,0,0,0-1.046.65,10.066,10.066,0,0,1,3.161-2.58c4.142-2.21,8.961-1.37,10.765,1.86S279.158,1071.74,275.015,1073.94Zm-5.356-8.34c-3.892,3.8-5.32,10.11-2.207,13.14s9.591,1.65,13.482-2.15a12.22,12.22,0,0,0,1.072-1.2,18.409,18.409,0,0,1-4.406,6.65c-4.671,4.55-11.485,5.29-15.222,1.65s-2.979-10.28,1.691-14.84a19.007,19.007,0,0,1,6.826-4.29A13.089,13.089,0,0,0,269.659,1065.6Z" transform="translate(-260 -1061)"/>
</svg>
