<!-- Generator: Adobe Illustrator 22.0.1, SVG Export Plug-In  -->
<svg version="1.1"
	 xmlns="http://www.w3.org/2000/svg" xmlns:xlink="http://www.w3.org/1999/xlink" xmlns:a="http://ns.adobe.com/AdobeSVGViewerExtensions/3.0/"
	 x="0px" y="0px" width="15.7px" height="19.2px" viewBox="0 0 15.7 19.2" style="enable-background:new 0 0 15.7 19.2;"
	 xml:space="preserve">
<style type="text/css">
	.st0{fill:#8596A8;}
	.st1{fill:#428E42;}
</style>
<defs>
</defs>
<g>
	<path class="st0" d="M6.7,15.1c0-2.8,2.3-5,5-5c0.5,0,0.9,0.1,1.3,0.2V4H1v12c0,1.1,0.9,2,2,2h4.6C7,17.2,6.7,16.2,6.7,15.1z"/>
	<polygon class="st0" points="14,1 10.5,1 9.5,0 4.5,0 3.5,1 0,1 0,3 14,3 	"/>
</g>
<path class="st1" d="M11.7,11.1c-2.2,0-4,1.8-4,4s1.8,4,4,4c2.2,0,4-1.8,4-4S13.9,11.1,11.7,11.1z M14.1,13.8l-3.6,3.6l-1.8-1.8
	l0.7-0.7l1.1,1.1l3-3L14.1,13.8L14.1,13.8z"/>
</svg>
