<!-- Generator: Adobe Illustrator 22.0.1, SVG Export Plug-In  -->
<svg version="1.1"
	 xmlns="http://www.w3.org/2000/svg" xmlns:xlink="http://www.w3.org/1999/xlink" xmlns:a="http://ns.adobe.com/AdobeSVGViewerExtensions/3.0/"
	 x="0px" y="0px" width="13.4px" height="16.1px" viewBox="0 0 13.4 16.1" style="enable-background:new 0 0 13.4 16.1;"
	 xml:space="preserve">
<style type="text/css">
	.st0{fill:#8596A8;}
</style>
<defs>
</defs>
<g>
	<path class="st0" d="M6.4,12.5c0.2,0.2,0.5,0.2,0.6,0l4-5.1C11.2,7.2,11.1,7,10.8,7H9.2V3H4.1v4H2.6C2.3,7,2.2,7.2,2.4,7.4
		L6.4,12.5z"/>
	<path class="st0" d="M11.9,11.8v2.8H1.6v-2.8H0v4c0,0.2,0.2,0.4,0.4,0.4H13c0.2,0,0.4-0.2,0.4-0.4v-4H11.9z"/>
	<rect x="4.1" y="1.8" class="st0" width="5.1" height="0.8"/>
	<rect x="4.1" y="0.8" class="st0" width="5.1" height="0.5"/>
	<rect x="4.1" class="st0" width="5.1" height="0.3"/>
</g>
</svg>
