<?xml version="1.0" encoding="UTF-8"?>
<svg width="327px" height="55px" viewBox="0 0 327 55" version="1.1" xmlns="http://www.w3.org/2000/svg" xmlns:xlink="http://www.w3.org/1999/xlink">
    <!-- Generator: Sketch 46.2 (44496) - http://www.bohemiancoding.com/sketch -->
    <title>HEALTHeNET</title>
    <desc>Created with Sketch.</desc>
    <defs></defs>
    <g id="Page-1" stroke="none" stroke-width="1" fill="none" fill-rule="evenodd">
        <g id="HEALTHeNET">
            <path d="M33.038,28.463 C29.7935612,30.2120935 26.1698028,31.1391494 22.484,31.163 C23.9192888,30.7660217 25.3073776,30.2148096 26.624,29.519 C34.624,25.276 38.281,16.786 34.799,10.558 C31.317,4.33 22.011,2.721 14.013,6.964 C13.2153341,7.39186972 12.4469754,7.8722609 11.713,8.402 C13.6232941,6.05642989 15.9892785,4.12247998 18.668,2.717 C27.781,-2.126 38.386,-0.29 42.355,6.817 C46.324,13.924 42.152,23.62 33.038,28.463 Z M80.542,11.958 L80.542,25.295 L63.368,25.295 L63.368,11.958 L59.414,11.958 L59.414,42.8 L63.368,42.8 L63.368,28.771 L80.542,28.771 L80.542,42.8 L84.5,42.8 L84.5,11.958 L80.547,11.958 L80.542,11.958 Z M94.818,39.328 L94.818,28.684 L109.444,28.684 L109.444,25.426 L94.818,25.426 L94.818,15.433 L111.641,15.433 L111.641,11.958 L90.864,11.958 L90.864,42.8 L112.036,42.8 L112.036,39.324 L94.818,39.324 L94.818,39.328 Z M113.046,42.804 L117.263,42.804 L120.909,33.767 L134,33.767 L137.69,42.804 L141.907,42.804 L129.168,11.958 L125.83,11.958 L113.046,42.804 Z M121.699,30.726 L127.499,16.476 L133.122,30.726 L121.7,30.726 L121.699,30.726 Z M166.326,42.8 L166.326,39.324 L148.932,39.324 L148.932,11.954 L144.979,11.954 L144.979,42.8 L166.326,42.8 Z M187.235,11.954 L161.758,11.954 L161.758,15.429 L172.52,15.429 L172.52,42.8 L176.473,42.8 L176.473,15.433 L187.235,15.433 L187.235,11.958 L187.235,11.954 Z M211.745,11.954 L211.745,25.291 L194.57,25.291 L194.57,11.958 L190.617,11.958 L190.617,42.8 L194.57,42.8 L194.57,28.771 L211.745,28.771 L211.745,42.8 L215.7,42.8 L215.7,11.958 L211.747,11.958 L211.745,11.954 Z M269.33,42.8 L272.669,42.8 L272.669,12 L268.715,12 L268.715,35.982 L249.388,11.957 L246.314,11.957 L246.314,42.8 L250.267,42.8 L250.267,19.256 L269.33,42.8 Z M282.99,39.324 L282.99,28.684 L297.617,28.684 L297.617,25.426 L282.99,25.426 L282.99,15.433 L299.814,15.433 L299.814,11.958 L279.037,11.958 L279.037,42.8 L300.209,42.8 L300.209,39.324 L282.99,39.324 Z M327,11.958 L301.526,11.958 L301.526,15.433 L312.288,15.433 L312.288,42.8 L316.241,42.8 L316.241,15.433 L327,15.433 L327,11.958 Z" fill="#0C747D"></path>
            <path d="M21.252,10.13 C12.688,18.475 9.552,32.362 16.397,39.038 C23.242,45.714 37.497,42.652 46.061,34.306 C46.9049272,33.4756695 47.6929823,32.590402 48.42,31.656 C47.085,36.22 42.668,42.448 38.725,46.29 C28.448,56.305 13.454,57.929 5.232,49.917 C-2.99,41.905 -1.321,27.294 8.953,17.279 C12.897,13.437 19.289,9.133 23.972,7.83 C23.0162068,8.53660653 22.1076047,9.30490978 21.252,10.13 L21.252,10.13 Z" id="HEALTHeNET-path" fill="#A9A9A9"></path>
            <path d="M234.5,42.8 C235.507432,42.5300764 236.474798,42.1282682 237.377,41.605 C238.219454,41.1157784 238.988415,40.5097668 239.661,39.805 C240.306095,39.1312856 240.833131,38.353747 241.22,37.505 L237.882,36.592 C237.644553,37.1763134 237.293815,37.707858 236.85,38.156 C236.392016,38.6228751 235.866483,39.0182887 235.291,39.329 C234.692339,39.6537125 234.05857,39.9090316 233.402,40.09 C232.72976,40.2777883 232.034977,40.3726691 231.337,40.372 C230.364224,40.3766852 229.400556,40.1844959 228.504,39.807 C226.689728,39.0479299 225.22482,37.6379517 224.397,35.854 C223.946684,34.882823 223.678893,33.8370825 223.607,32.769 L242.626,32.769 C242.661437,32.5680181 242.683485,32.3649044 242.692,32.161 C242.706,31.9 242.714,31.611 242.714,31.292 C242.716352,29.7988189 242.440653,28.3182534 241.901,26.926 C240.850541,24.1301919 238.710654,21.8802439 235.971,20.691 C234.483331,20.0398936 232.873778,19.7139601 231.25,19.735 C229.62115,19.7155461 228.005913,20.0335542 226.506,20.669 C223.705346,21.8570508 221.497988,24.1184398 220.378,26.947 C219.803962,28.3840503 219.51329,29.9185642 219.522,31.466 C219.514513,33.0201369 219.805092,34.5612944 220.378,36.006 C220.924701,37.4020853 221.737808,38.6784661 222.772,39.764 C223.818307,40.8508807 225.073415,41.7151703 226.462,42.305 C227.961661,42.941373 229.577024,43.2597465 231.206,43.24 C232.318769,43.2417987 233.426717,43.0938033 234.5,42.8 L234.5,42.8 Z" id="HEALTHeNET-path" fill="#A9A9A9"></path>
            <path d="M223.519,29.94 C223.594404,28.9170166 223.85461,27.9161721 224.287,26.986 C224.693447,26.113428 225.259901,25.3248023 225.957,24.661 C226.65052,24.0059852 227.463188,23.4900054 228.351,23.141 C231.143239,22.0305822 234.324465,22.6131532 236.542,24.641 C237.249791,25.3050917 237.830615,26.0926274 238.256,26.965 C238.714272,27.8960277 238.989908,28.9062405 239.068,29.941 L223.517,29.941 L223.519,29.94 Z" id="HEALTHeNET-path" fill="#FFFFFF"></path>
        </g>
    </g>
</svg>