<svg xmlns="http://www.w3.org/2000/svg" width="35" height="28" viewBox="0 0 35 28">
  <metadata><?xpacket begin="﻿" id="W5M0MpCehiHzreSzNTczkc9d"?>
<x:xmpmeta xmlns:x="adobe:ns:meta/" x:xmptk="Adobe XMP Core 5.6-c140 79.160451, 2017/05/06-01:08:21        ">
   <rdf:RDF xmlns:rdf="http://www.w3.org/1999/02/22-rdf-syntax-ns#">
      <rdf:Description rdf:about=""/>
   </rdf:RDF>
</x:xmpmeta>
                                                                                                    
                                                                                                    
                                                                                                    
                                                                                                    
                                                                                                    
                                                                                                    
                                                                                                    
                                                                                                    
                                                                                                    
                                                                                                    
                                                                                                    
                                                                                                    
                                                                                                    
                                                                                                    
                                                                                                    
                                                                                                    
                                                                                                    
                                                                                                    
                                                                                                    
                                                                                                    
                           
<?xpacket end="w"?></metadata>
<defs>
    <style>
      .cls-1 {
        fill: #8596a8;
        fill-rule: evenodd;
      }
    </style>
  </defs>
  <path id="Icon-Provider-Inquiry" class="cls-1" d="M424.464,503.237a0.924,0.924,0,0,1-.393,1.763H391a1,1,0,0,1,0-2h-1a13.988,13.988,0,0,1,8.054-12.661,7.995,7.995,0,0,1,11.63-10.966,7.42,7.42,0,0,1,7.837,12.013A12.991,12.991,0,0,1,425,503.143c0,0.072-.01.141-0.011,0.213C424.817,503.308,424.641,503.271,424.464,503.237Zm-6.977-.094h0.12c-0.062-.013-0.123-0.03-0.184-0.042C417.446,503.112,417.464,503.13,417.487,503.143Zm-9.62-13.59A5.963,5.963,0,0,0,410,485c0-.195-0.025-0.383-0.043-0.572,0.012-.144.043-0.281,0.043-0.428a5,5,0,0,0-5-5c-0.162,0-.314.033-0.472,0.048C404.352,479.031,404.181,479,404,479a5.976,5.976,0,0,0-3.867,10.553c0.282-.081.578-0.123,0.867-0.187V492.4a8.059,8.059,0,0,1-1.23-.613A11.992,11.992,0,0,0,392,503h7.011a0.989,0.989,0,0,1,.989,0,2.542,2.542,0,0,0,.868,0H416a11.957,11.957,0,0,0-6.786-10.76L408,490m7.927,2.726a7.509,7.509,0,0,1-1.142.57v-2.814c0.269,0.06.544,0.1,0.8,0.174a5.549,5.549,0,0,0-3.59-9.8,5.6,5.6,0,0,0-1.1.111,7.956,7.956,0,0,1-.956,9.371A13.989,13.989,0,0,1,418,503c0,0.048,0,.1-0.007.143h5.15A11.134,11.134,0,0,0,415.927,492.726Z" transform="translate(-390 -477)"/>
</svg>
