<?xml version="1.0" encoding="UTF-8"?>
<svg width="27px" height="35px" viewBox="0 0 27 35" version="1.1" xmlns="http://www.w3.org/2000/svg" xmlns:xlink="http://www.w3.org/1999/xlink">
    <!-- Generator: Sketch 48.2 (47327) - http://www.bohemiancoding.com/sketch -->
    <title>Icon-Eligibility-Benefits</title>
    <desc>Created with Sketch.</desc>
    <defs></defs>
    <g id="Artboard" stroke="none" stroke-width="1" fill="none" fill-rule="evenodd" transform="translate(-904.000000, -985.000000)">
        <g id="Icon-Eligibility-Benefits" transform="translate(904.000000, 985.000000)" fill="#FFFFFF">
            <path d="M23.9,6.15313154 L22.69,6.15313154 C22.2472473,4.9205674 21.077672,4.09922292 19.768,4.10113154 L18.629,4.10113154 C18.4177029,3.10622287 17.9125639,2.19766945 17.179,1.49313154 C15.1303275,-0.497710513 11.8696725,-0.497710513 9.821,1.49313154 C9.08677331,2.19730949 8.58122446,3.10597344 8.37,4.10113154 L7.232,4.10113154 C5.92232803,4.09922292 4.7527527,4.9205674 4.31,6.15313154 L3.1,6.15313154 C1.39521848,6.1481477 0.00826571151,7.52436277 0,9.22913154 L0,31.9241315 C0.00826571151,33.6289003 1.39521848,35.0051154 3.1,35.0001315 L23.9,35.0001315 C25.6045555,35.0045646 26.9911853,33.62867 27,31.9241315 L27,9.22913154 C26.9911853,7.52459305 25.6045555,6.1486985 23.9,6.15313154 Z M6.2,7.17813154 C6.20105881,6.90522313 6.31048775,6.64391318 6.50421328,6.45168795 C6.69793881,6.25946272 6.96009161,6.15206861 7.233,6.15313154 L9.3,6.15313154 C9.57290812,6.15392835 9.83495504,6.0462796 10.0284928,5.85386702 C10.2220306,5.66145445 10.3312055,5.40003967 10.332,5.12713154 C10.3846842,3.41516428 11.7877223,2.05463923 13.5005,2.05463923 C15.2132777,2.05463923 16.6163158,3.41516428 16.669,5.12713154 C16.6712052,5.69559481 17.1335349,6.15479155 17.702,6.15313154 L19.769,6.15313154 C20.0419084,6.15206861 20.3040612,6.25946272 20.4977867,6.45168795 C20.6915122,6.64391318 20.8009412,6.90522313 20.802,7.17813154 L20.802,8.20013154 L6.2,8.20013154 L6.2,7.17513154 L6.2,7.17813154 Z M24.934,31.9241315 C24.9312448,32.4922037 24.4690764,32.9507928 23.901,32.9491315 L3.1,32.9491315 C2.53192359,32.9507928 2.06975524,32.4922037 2.067,31.9241315 L2.067,9.22913154 C2.06726439,8.9556113 2.17631082,8.69342827 2.37009374,8.50039572 C2.56387667,8.30736316 2.8264808,8.19933475 3.1,8.20013154 L4.133,8.20013154 L4.133,9.22613154 C4.13575525,9.79459544 4.59853373,10.2533459 5.167,10.2511315 L21.835,10.2511315 C22.1079084,10.2521945 22.3700612,10.1448004 22.5637867,9.95257513 C22.7575122,9.7603499 22.8669412,9.49903995 22.868,9.22613154 L22.868,8.20013154 L23.9,8.20013154 C24.4684651,8.19847153 24.9307948,8.65766827 24.933,9.22613154 L24.933,31.9211315 L24.934,31.9241315 Z M13.441,4.10013154 C12.868833,4.10013154 12.405,4.56396454 12.405,5.13613154 C12.405,5.70829854 12.868833,6.17213154 13.441,6.17213154 C13.8219859,6.18887514 14.1814205,5.99515835 14.3769118,5.66772317 C14.572403,5.340288 14.572403,4.93197508 14.3769118,4.60453991 C14.1814205,4.27710473 13.8219859,4.08338794 13.441,4.10013154 Z M12.095,11.7881315 C11.6902209,11.3879238 11.0387791,11.3879238 10.634,11.7881315 L7.234,15.1651315 L5.9,13.8401315 C5.49522086,13.4399238 4.84377914,13.4399238 4.439,13.8401315 C4.24565632,14.0318482 4.13689916,14.2928503 4.13689916,14.5651315 C4.13689916,14.8374128 4.24565632,15.0984148 4.439,15.2901315 L6.505,17.3411315 C6.9103422,17.7409165 7.5616578,17.7409165 7.967,17.3411315 L12.099,13.2411315 C12.2935929,13.0497397 12.4032702,12.7882826 12.4034581,12.5153409 C12.4036461,12.2423992 12.2943291,11.9807912 12.1,11.7891315 L12.095,11.7881315 Z M12.095,17.9411315 C11.6904439,17.5403813 11.0385561,17.5403813 10.634,17.9411315 L7.234,21.3171315 L5.898,19.9921315 C5.49344394,19.5913813 4.84155606,19.5913813 4.437,19.9921315 C4.24365632,20.1838482 4.13489916,20.4448503 4.13489916,20.7171315 C4.13489916,20.9894128 4.24365632,21.2504148 4.437,21.4421315 L6.503,23.4921315 C6.90789766,23.8929989 7.56010234,23.8929989 7.965,23.4921315 L12.097,19.3921315 C12.2912384,19.2010826 12.4008814,18.9402064 12.4014451,18.6677583 C12.4020087,18.3953103 12.2934461,18.1339826 12.1,17.9421315 L12.095,17.9411315 Z M21.834,15.5891315 L15.634,15.5891315 C15.2599877,15.5774508 14.909277,15.7703151 14.7188174,16.0924125 C14.5283578,16.4145099 14.5283578,16.8147532 14.7188174,17.1368506 C14.909277,17.458948 15.2599877,17.6518123 15.634,17.6401315 L21.834,17.6401315 C22.2109983,17.6567886 22.5667112,17.4651495 22.7601836,17.1411533 C22.9536561,16.817157 22.9536561,16.413106 22.7601836,16.0891098 C22.5667112,15.7651136 22.2109983,15.5734745 21.834,15.5901315 L21.834,15.5891315 Z M21.834,21.7421315 L15.634,21.7421315 C15.2599877,21.7304508 14.909277,21.9233151 14.7188174,22.2454125 C14.5283578,22.5675099 14.5283578,22.9677532 14.7188174,23.2898506 C14.909277,23.611948 15.2599877,23.8048123 15.634,23.7931315 L21.834,23.7931315 C22.2109983,23.8097886 22.5667112,23.6181495 22.7601836,23.2941533 C22.9536561,22.970157 22.9536561,22.566106 22.7601836,22.2421098 C22.5667112,21.9181136 22.2109983,21.7264745 21.834,21.7431315 L21.834,21.7421315 Z M21.834,27.8941315 L15.634,27.8941315 C15.2599877,27.8824508 14.909277,28.0753151 14.7188174,28.3974125 C14.5283578,28.7195099 14.5283578,29.1197532 14.7188174,29.4418506 C14.909277,29.763948 15.2599877,29.9568123 15.634,29.9451315 L21.834,29.9451315 C22.2195014,29.9770553 22.5901907,29.7894489 22.7927528,29.4599051 C22.9953149,29.1303614 22.9953149,28.7149017 22.7927528,28.385358 C22.5901907,28.0558142 22.2195014,27.8682077 21.834,27.9001315 L21.834,27.8941315 Z M12.095,24.7771315 C11.6904439,24.3763813 11.0385561,24.3763813 10.634,24.7771315 L7.234,28.1531315 L5.898,26.8271315 C5.49322086,26.4269238 4.84177914,26.4269238 4.437,26.8271315 C4.2435964,27.0190197 4.13481508,27.280187 4.13481508,27.5526315 C4.13481508,27.825076 4.2435964,28.0862434 4.437,28.2781315 L6.503,30.3281315 C6.90789766,30.7289989 7.56010234,30.7289989 7.965,30.3281315 L12.097,26.2281315 C12.2912384,26.0370826 12.4008814,25.7762064 12.4014451,25.5037583 C12.4020087,25.2313103 12.2934461,24.9699826 12.1,24.7781315 L12.095,24.7771315 Z"></path>
        </g>
    </g>
</svg>