<svg xmlns="http://www.w3.org/2000/svg" width="27" height="36" viewBox="0 0 27 36">
  <metadata><?xpacket begin="﻿" id="W5M0MpCehiHzreSzNTczkc9d"?>
<x:xmpmeta xmlns:x="adobe:ns:meta/" x:xmptk="Adobe XMP Core 5.6-c140 79.160451, 2017/05/06-01:08:21        ">
   <rdf:RDF xmlns:rdf="http://www.w3.org/1999/02/22-rdf-syntax-ns#">
      <rdf:Description rdf:about=""/>
   </rdf:RDF>
</x:xmpmeta>
                                                                                                    
                                                                                                    
                                                                                                    
                                                                                                    
                                                                                                    
                                                                                                    
                                                                                                    
                                                                                                    
                                                                                                    
                                                                                                    
                                                                                                    
                                                                                                    
                                                                                                    
                                                                                                    
                                                                                                    
                                                                                                    
                                                                                                    
                                                                                                    
                                                                                                    
                                                                                                    
                           
<?xpacket end="w"?></metadata>
<defs>
    <style>
      .cls-1 {
        fill: #8596a8;
        fill-rule: evenodd;
      }
    </style>
  </defs>
  <path id="Icon-Provider-Inquiry-Summary" class="cls-1" d="M421,570.286a0.844,0.844,0,0,0-.245-0.587l-6.454-6.452h0a0.84,0.84,0,0,0-.6-0.246H395.775A1.776,1.776,0,0,0,394,564.774v32.452A1.776,1.776,0,0,0,395.775,599h23.45A1.776,1.776,0,0,0,421,597.226V570.295A0.028,0.028,0,0,0,421,570.286Zm-6.452-4.408,3.575,3.574h-3.486a0.089,0.089,0,0,1-.089-0.088v-3.486h0Zm4.768,31.348a0.089,0.089,0,0,1-.089.088h-23.45a0.089,0.089,0,0,1-.089-0.088V564.774a0.089,0.089,0,0,1,.089-0.088H412.86v4.678a1.777,1.777,0,0,0,1.775,1.774h4.679v26.088h0Zm-3.574-10.045a0.43,0.43,0,0,1,.26.388,0.441,0.441,0,0,1-.451.431H399.486a0.465,0.465,0,1,1,0-.929H399a6.484,6.484,0,0,1,3.912-5.878,3.609,3.609,0,0,1-1-2.479A3.8,3.8,0,0,1,405.8,575a3.965,3.965,0,0,1,2.761,1.1,3.75,3.75,0,0,1,1.125-.173,3.531,3.531,0,0,1,3.608,3.449,3.348,3.348,0,0,1-.927,2.3A6.02,6.02,0,0,1,416,587.138c0,0.033,0,.065,0,0.1C415.911,587.214,415.826,587.2,415.74,587.181Zm-3.389-.043h0.058l-0.089-.02C412.331,587.124,412.34,587.132,412.351,587.138Zm-4.673-6.31a2.72,2.72,0,0,0,1.036-2.114,2.582,2.582,0,0,0-.021-0.265c0.006-.067.021-0.131,0.021-0.2a2.376,2.376,0,0,0-2.428-2.321c-0.079,0-.153.015-0.229,0.022-0.086-.008-0.169-0.022-0.257-0.022a2.851,2.851,0,0,0-2.914,2.785,2.72,2.72,0,0,0,1.036,2.114c0.137-.037.281-0.057,0.421-0.087v1.407a3.993,3.993,0,0,1-.6-0.285,5.585,5.585,0,0,0-3.775,5.208h3.406a0.5,0.5,0,0,1,.48,0,1.26,1.26,0,0,0,.422,0h7.35a5.538,5.538,0,0,0-3.3-5l-0.59-1.04m3.85,1.265a3.616,3.616,0,0,1-.554.265V581.26c0.13,0.027.264,0.046,0.391,0.08a2.526,2.526,0,0,0,.962-1.962,2.649,2.649,0,0,0-2.706-2.587,2.844,2.844,0,0,0-.534.051,3.57,3.57,0,0,1,.534,1.872,3.609,3.609,0,0,1-1,2.479,6.484,6.484,0,0,1,3.912,5.878c0,0.023,0,.045,0,0.067h2.5A5.185,5.185,0,0,0,411.593,582.3Z" transform="translate(-394 -563)"/>
</svg>
