<svg xmlns="http://www.w3.org/2000/svg" width="38" height="31.719" viewBox="0 0 38 31.719">
  <metadata><?xpacket begin="﻿" id="W5M0MpCehiHzreSzNTczkc9d"?>
<x:xmpmeta xmlns:x="adobe:ns:meta/" x:xmptk="Adobe XMP Core 5.6-c140 79.160451, 2017/05/06-01:08:21        ">
   <rdf:RDF xmlns:rdf="http://www.w3.org/1999/02/22-rdf-syntax-ns#">
      <rdf:Description rdf:about=""/>
   </rdf:RDF>
</x:xmpmeta>
                                                                                                    
                                                                                                    
                                                                                                    
                                                                                                    
                                                                                                    
                                                                                                    
                                                                                                    
                                                                                                    
                                                                                                    
                                                                                                    
                                                                                                    
                                                                                                    
                                                                                                    
                                                                                                    
                                                                                                    
                                                                                                    
                                                                                                    
                                                                                                    
                                                                                                    
                                                                                                    
                           
<?xpacket end="w"?></metadata>
<defs>
    <style>
      .cls-1 {
        fill: #8596a8;
        fill-rule: evenodd;
      }
    </style>
  </defs>
  <path id="Icon-Referral-Request" class="cls-1" d="M425,773a1,1,0,0,1-1,1H400.149c0.456,1,1.742,1.891,4.851,2,0,0-10.765,4.924-13.064-2h-1.007a0.924,0.924,0,0,1-.393-1.763c-0.177.034-.353,0.071-0.525,0.119,0-.072-0.011-0.141-0.011-0.213,0-.391.051-0.768,0.084-1.15H387L396,760l0.681,0.832c0.267-.149.521-0.315,0.8-0.446a7.42,7.42,0,0,1,7.837-12.013,7.994,7.994,0,0,1,11.63,10.966A13.988,13.988,0,0,1,425,772h-1A1,1,0,0,1,425,773Zm-25.022-.582c-0.017.1-.027,0.2-0.036,0.3A0.6,0.6,0,0,0,400,772.5,0.4,0.4,0,0,0,399.978,772.418Zm-0.127-4.763A2.975,2.975,0,0,0,398,767c-0.014,0-.027,0-0.041,0,0.144-.374.309-0.737,0.482-1.1L396.25,763.3a11.111,11.111,0,0,0-4.2,6.85H393a6.255,6.255,0,0,0,1.06,3.656,9.495,9.495,0,0,0,1.94.2,8.575,8.575,0,0,0,2.65-.384,10.682,10.682,0,0,1,.35-3.468h3l-2.13-2.537C399.864,767.626,399.857,767.64,399.851,767.655ZM402,777a3.18,3.18,0,0,1-3.3-3h-4.5C396.645,777.237,402,777,402,777Zm-11.841-6.852c0.013-.088.042-0.171,0.057-0.258l-0.216.258h0.159ZM403,749.857a5.549,5.549,0,0,0-3.59,9.8c0.261-.074.536-0.114,0.8-0.174V762.3a7.509,7.509,0,0,1-1.142-.57,10.949,10.949,0,0,0-1.2.56l1.564,1.91a13.948,13.948,0,0,1,5.62-4.857,7.956,7.956,0,0,1-.956-9.371A5.6,5.6,0,0,0,403,749.857Zm12.23,10.925a8.059,8.059,0,0,1-1.23.613v-3.029c0.289,0.064.585,0.106,0.867,0.187A5.976,5.976,0,0,0,411,748c-0.181,0-.352.031-0.528,0.048-0.158-.015-0.31-0.048-0.472-0.048a5,5,0,0,0-5,5c0,0.147.031,0.284,0.043,0.428-0.018.189-.043,0.377-0.043,0.572a5.963,5.963,0,0,0,2.133,4.553L407,759l-1.214,2.24a12.023,12.023,0,0,0-5.018,4.584L405,770.993h-4.5a4.553,4.553,0,0,0-.472,1.183,1.891,1.891,0,0,0,.193-0.176h13.911a2.542,2.542,0,0,0,.868,0,0.989,0.989,0,0,1,.989,0H423A11.992,11.992,0,0,0,415.23,760.782Z" transform="translate(-387 -746)"/>
</svg>
