<svg xmlns="http://www.w3.org/2000/svg" width="31" height="31" viewBox="0 0 31 31">
  <metadata><?xpacket begin="﻿" id="W5M0MpCehiHzreSzNTczkc9d"?>
<x:xmpmeta xmlns:x="adobe:ns:meta/" x:xmptk="Adobe XMP Core 5.6-c140 79.160451, 2017/05/06-01:08:21        ">
   <rdf:RDF xmlns:rdf="http://www.w3.org/1999/02/22-rdf-syntax-ns#">
      <rdf:Description rdf:about=""/>
   </rdf:RDF>
</x:xmpmeta>
                                                                                                    
                                                                                                    
                                                                                                    
                                                                                                    
                                                                                                    
                                                                                                    
                                                                                                    
                                                                                                    
                                                                                                    
                                                                                                    
                                                                                                    
                                                                                                    
                                                                                                    
                                                                                                    
                                                                                                    
                                                                                                    
                                                                                                    
                                                                                                    
                                                                                                    
                                                                                                    
                           
<?xpacket end="w"?></metadata>
<defs>
    <style>
      .cls-1 {
        fill: #8596a8;
        fill-rule: evenodd;
      }
    </style>
  </defs>
  <path id="Icon-Referral" class="cls-1" d="M416,687a6.982,6.982,0,0,1-5.733-3H393a1,1,0,0,1,0-2h-1a13.989,13.989,0,0,1,8.054-12.661,8,8,0,1,1,11.891,0,14.082,14.082,0,0,1,4.808,3.737A6.981,6.981,0,0,1,416,687Zm-0.875-3.4a0.693,0.693,0,0,0,.144.216,0.645,0.645,0,0,0,.218.145,0.732,0.732,0,0,0,.542,0,0.689,0.689,0,0,0,.221-0.145,0.725,0.725,0,0,0,.149-0.216,0.685,0.685,0,0,0,0-.538,0.714,0.714,0,0,0-.149-0.219,0.733,0.733,0,0,0-.221-0.148A0.693,0.693,0,0,0,415.125,683.6Zm-4.9-12.814A8.1,8.1,0,0,1,409,671.4v-3.03c0.288,0.064.584,0.106,0.866,0.187a6,6,0,1,0-7.732,0c0.281-.081.578-0.123,0.866-0.187v3.03a8.1,8.1,0,0,1-1.229-.614A11.992,11.992,0,0,0,394,682h15.325a6.85,6.85,0,0,1,4.849-8.729A12.009,12.009,0,0,0,410.229,670.782Zm7.623,6.263a1.639,1.639,0,0,0-.425-0.558,1.959,1.959,0,0,0-.644-0.355,2.519,2.519,0,0,0-.81-0.126,2.85,2.85,0,0,0-.616.063,2.788,2.788,0,0,0-.53.172,2.816,2.816,0,0,0-.453.252,3.524,3.524,0,0,0-.379.3l0.26,0.41a0.241,0.241,0,0,0,.216.126,0.3,0.3,0,0,0,.168-0.082,2.281,2.281,0,0,1,.268-0.18,2.191,2.191,0,0,1,.406-0.181,1.817,1.817,0,0,1,.578-0.082,1.506,1.506,0,0,1,.466.071,1.143,1.143,0,0,1,.379.205,0.991,0.991,0,0,1,.254.326,0.945,0.945,0,0,1,.094.426,1.192,1.192,0,0,1-.133.582,1.842,1.842,0,0,1-.328.435,3.281,3.281,0,0,1-.423.347,4.775,4.775,0,0,0-.414.317,1.513,1.513,0,0,0-.3.344,0.662,0.662,0,0,0-.094.429l0.066,0.908h0.674l0.1-.837a0.567,0.567,0,0,1,.163-0.328,2.707,2.707,0,0,1,.339-0.295l0.423-.314a2.434,2.434,0,0,0,.414-0.394,2.008,2.008,0,0,0,.315-0.527,1.868,1.868,0,0,0,.125-0.716A1.707,1.707,0,0,0,417.852,677.045Z" transform="translate(-392 -656)"/>
</svg>
