<svg xmlns="http://www.w3.org/2000/svg" width="25.375" height="32.938" viewBox="0 0 25.375 32.938">
  <metadata><?xpacket begin="﻿" id="W5M0MpCehiHzreSzNTczkc9d"?>
<x:xmpmeta xmlns:x="adobe:ns:meta/" x:xmptk="Adobe XMP Core 5.6-c140 79.160451, 2017/05/06-01:08:21        ">
   <rdf:RDF xmlns:rdf="http://www.w3.org/1999/02/22-rdf-syntax-ns#">
      <rdf:Description rdf:about=""/>
   </rdf:RDF>
</x:xmpmeta>
                                                                                                    
                                                                                                    
                                                                                                    
                                                                                                    
                                                                                                    
                                                                                                    
                                                                                                    
                                                                                                    
                                                                                                    
                                                                                                    
                                                                                                    
                                                                                                    
                                                                                                    
                                                                                                    
                                                                                                    
                                                                                                    
                                                                                                    
                                                                                                    
                                                                                                    
                                                                                                    
                           
<?xpacket end="w"?></metadata>
<defs>
    <style>
      .cls-1 {
        fill: #8596a8;
        fill-rule: evenodd;
      }
    </style>
  </defs>
  <path id="Icon-Claim-Status-Inquiry" class="cls-1" d="M414.512,419.686A5.889,5.889,0,1,1,420.4,413.8,5.888,5.888,0,0,1,414.512,419.686Zm1.7-5.41a1.528,1.528,0,0,0-.414-0.574,3.668,3.668,0,0,0-.56-0.409,6.01,6.01,0,0,0-.7-0.341v-2.4a1.353,1.353,0,0,1,.9.749l0.642-.418a2.081,2.081,0,0,0-.637-0.74,1.971,1.971,0,0,0-.9-0.37v-1H413.9v1a2.1,2.1,0,0,0-1.237.6,1.7,1.7,0,0,0-.486,1.236,1.733,1.733,0,0,0,.136.7,1.444,1.444,0,0,0,.4.535,3.916,3.916,0,0,0,.535.38,5.358,5.358,0,0,0,.648.311v2.969a1.311,1.311,0,0,1-.876-0.428,1.584,1.584,0,0,1-.438-0.9l-0.789.224a2.246,2.246,0,0,0,.73,1.314,2.156,2.156,0,0,0,1.373.574V418.3h0.642v-1.07a2.249,2.249,0,0,0,1.3-.779,2.159,2.159,0,0,0,.511-1.421A1.974,1.974,0,0,0,416.213,414.276Zm-1.675,2.161v-2.609a1.416,1.416,0,0,1,.993,1.217A1.435,1.435,0,0,1,414.538,416.437Zm-1.548-4.8a1.085,1.085,0,0,1,.258-0.711,1.1,1.1,0,0,1,.648-0.389v2.132A1.226,1.226,0,0,1,412.99,411.638Zm-12.866-1.752H406.4a0.528,0.528,0,0,1,.331.147,8.567,8.567,0,0,0-.571,1.536h-6.036a0.722,0.722,0,0,1-.709-0.734A0.943,0.943,0,0,1,400.124,409.886Zm0-2.748a0.723,0.723,0,0,1-.709-0.735,1.05,1.05,0,0,1,.709-1.034H412.58a8.618,8.618,0,0,0-3.59,1.769h-8.866Zm12.552-8.863H400.124a0.735,0.735,0,0,1,0-1.469h12.553A0.735,0.735,0,0,1,412.676,398.275Zm0,4.431H400.124a0.722,0.722,0,0,1-.709-0.734,0.893,0.893,0,0,1,.709-0.906h12.553a0.893,0.893,0,0,1,.709.906A0.722,0.722,0,0,1,412.676,402.706Zm2.935-8.473H412.4a2.355,2.355,0,0,1-1.964-1.931v-3.476h-13.3a0.075,0.075,0,0,0-.074.077v27.118a0.076,0.076,0,0,0,.074.078h9.042a8.642,8.642,0,0,0,.849,2.025h-10.49a1.522,1.522,0,0,1-1.493-1.546V388.3a1.521,1.521,0,0,1,1.493-1.546h15.082a0.689,0.689,0,0,1,.5.214s0,0,0,0l5.429,5.621a0.753,0.753,0,0,1,.207.512,0.022,0.022,0,0,1,0,.008V405.78a8.6,8.6,0,0,0-2.146-.558V394.233Zm-3.283-4.968V392.3a0.077,0.077,0,0,0,.075.077h2.933Z" transform="translate(-395.031 -386.75)"/>
</svg>
