<?xml version="1.0" encoding="UTF-8"?>
<svg width="26px" height="33px" viewBox="0 0 26 33" version="1.1" xmlns="http://www.w3.org/2000/svg" xmlns:xlink="http://www.w3.org/1999/xlink">
    <!-- Generator: Sketch 48.2 (47327) - http://www.bohemiancoding.com/sketch -->
    <title>Icon-Claim-Status-Inquiry</title>
    <desc>Created with Sketch.</desc>
    <defs></defs>
    <g id="Artboard" stroke="none" stroke-width="1" fill="none" fill-rule="evenodd" transform="translate(-997.000000, -903.000000)">
        <g id="Icon-Claim-Status-Inquiry" transform="translate(997.000000, 903.000000)" fill="#FFFFFF">
            <path d="M19.468214,32.9320006 C17.0859719,32.9324048 14.9381323,31.4975277 14.026488,29.2966229 C13.1148436,27.0957181 13.6189847,24.5623549 15.3037703,22.8781416 C16.988556,21.1939282 19.5220903,20.6906478 21.7226852,21.6030398 C23.9232802,22.5154319 25.3574275,24.6637588 25.356214,27.0460006 C25.3551097,30.2970721 22.7192857,32.9320008 19.468214,32.9320006 Z M21.168214,27.5220006 C21.0770361,27.3009047 20.9352328,27.1042983 20.754214,26.9480006 C20.5808824,26.7942884 20.393378,26.6573432 20.194214,26.5390006 C19.9684969,26.4103225 19.7346729,26.2964168 19.494214,26.1980006 L19.494214,23.7980006 C19.8923054,23.8982061 20.2233742,24.1737289 20.394214,24.5470006 L21.036214,24.1290006 C20.8855725,23.8353062 20.6672295,23.5816582 20.399214,23.3890006 C20.1348524,23.1923863 19.8254225,23.0651763 19.499214,23.0190006 L19.499214,22.0190006 L18.856214,22.0190006 L18.856214,23.0190006 C18.3882381,23.0745379 17.9525442,23.2858688 17.619214,23.6190006 C17.2963216,23.9480585 17.1209184,24.3941455 17.133214,24.8550006 C17.1295325,25.0952387 17.1758461,25.3336177 17.269214,25.5550006 C17.3588987,25.7621469 17.4958975,25.9453827 17.669214,26.0900006 C17.8366015,26.2314125 18.015563,26.3585254 18.204214,26.4700006 C18.4130093,26.5880547 18.6294963,26.6919551 18.852214,26.7810006 L18.852214,29.7500006 C18.51605,29.7252539 18.2023341,29.5719772 17.976214,29.3220006 C17.7367759,29.0772269 17.5831008,28.7614559 17.538214,28.4220006 L16.749214,28.6460006 C16.8344063,29.154844 17.0921844,29.6188445 17.479214,29.9600006 C17.8542495,30.3082255 18.340927,30.5116872 18.852214,30.5340006 L18.852214,31.5460006 L19.494214,31.5460006 L19.494214,30.4760006 C20.0046225,30.3745565 20.4640568,30.0992493 20.794214,29.6970006 C21.1300449,29.3002873 21.3114846,28.7957356 21.305214,28.2760006 C21.3095587,28.0181972 21.2633552,27.7620399 21.169214,27.5220006 L21.168214,27.5220006 Z M19.493214,29.6830006 L19.493214,27.0740006 C20.0394941,27.2420828 20.4311632,27.7221043 20.486214,28.2910006 C20.4981076,28.9228072 20.0953034,29.4880325 19.494214,29.6830006 L19.493214,29.6830006 Z M17.945214,24.8830006 C17.9431486,24.6227264 18.0347164,24.3703827 18.203214,24.1720006 C18.3664903,23.9698694 18.5960493,23.8320631 18.851214,23.7830006 L18.851214,25.9150006 C18.367509,25.7880706 18.0093772,25.3800773 17.946214,24.8840006 L17.945214,24.8830006 Z M5.07921398,23.1310006 L11.356214,23.1310006 C11.4804277,23.1394439 11.5976623,23.1915088 11.687214,23.2780006 C11.4482376,23.770579 11.2570298,24.2849315 11.116214,24.8140006 L5.08021398,24.8140006 C4.68183382,24.8068825 4.36452806,24.4783882 4.37121398,24.0800006 C4.35505718,23.6365429 4.65026601,23.2418208 5.08021398,23.1320006 L5.07921398,23.1310006 Z M5.07921398,20.3830006 C4.68067481,20.3753381 4.36352434,20.0465573 4.37021398,19.6480006 C4.35226189,19.1845788 4.64046365,18.7642676 5.07921398,18.6140006 L17.536214,18.6140006 C16.2173103,18.9137826 14.9874835,19.5197892 13.946214,20.3830006 L5.08021398,20.3830006 L5.07921398,20.3830006 Z M17.631214,11.5200006 L5.08021398,11.5200006 C4.68510172,11.5054192 4.37232025,11.1808818 4.37232025,10.7855006 C4.37232025,10.3901194 4.68510172,10.065582 5.08021398,10.0510006 L17.633214,10.0510006 C17.8958042,10.0511792 18.1383522,10.1914345 18.2694926,10.4189336 C18.4006331,10.6464327 18.4004425,10.9266131 18.2689926,11.1539336 C18.1375428,11.3812541 17.8948042,11.5211792 17.632214,11.5210006 L17.631214,11.5200006 Z M17.631214,15.9510006 L5.08021398,15.9510006 C4.68183382,15.9438825 4.36452806,15.6153882 4.37121398,15.2170006 C4.35562177,14.7827177 4.65491725,14.4002611 5.08021398,14.3110006 L17.633214,14.3110006 C18.0585107,14.4002611 18.3578062,14.7827177 18.342214,15.2170006 C18.3456915,15.4086662 18.2728041,15.5938468 18.1396189,15.7317217 C18.0064336,15.8695965 17.8238852,15.948846 17.632214,15.9520006 L17.631214,15.9510006 Z M20.566214,7.47800059 L17.356214,7.47800059 C16.3541558,7.32416939 15.5630016,6.54630849 15.392214,5.54700059 L15.392214,2.07100059 L2.09221398,2.07100059 C2.07214533,2.07126102 2.05301834,2.07955419 2.03911116,2.09402516 C2.02520399,2.10849614 2.01767708,2.12793744 2.01821398,2.14800059 L2.01821398,29.2660006 C2.01767651,29.286159 2.02517257,29.3057046 2.03905174,29.320334 C2.0529309,29.3349634 2.0720552,29.3434771 2.09221398,29.3440006 L11.134214,29.3440006 C11.3299614,30.0523537 11.6152637,30.7328451 11.983214,31.3690006 L1.49321398,31.3690006 C0.654557128,31.3531247 -0.013163193,30.661701 0.000213977995,29.8230006 L0.000213977995,1.54600059 C-0.0137169204,0.707081667 0.654319452,0.0153306742 1.49321398,5.94348535e-07 L16.575214,5.94348535e-07 C16.7641744,-0.000247400306 16.9449438,0.0771219276 17.075214,0.214000594 C17.075214,0.214000594 17.075214,0.214000594 17.075214,0.214000594 L22.504214,5.83500059 C22.6355672,5.9732921 22.7095475,6.15627713 22.711214,6.34700059 C22.7117029,6.34964485 22.7117029,6.35235634 22.711214,6.35500059 L22.711214,19.0260006 C22.0229566,18.7481755 21.3016291,18.5606169 20.565214,18.4680006 L20.565214,7.47900059 L20.566214,7.47800059 Z M17.283214,2.51000059 L17.283214,5.54600059 C17.2831999,5.58775756 17.3164711,5.621916 17.358214,5.62300059 L20.291214,5.62300059 L17.283214,2.51000059 Z"></path>
        </g>
    </g>
</svg>