<?xml version="1.0" encoding="UTF-8"?>
<svg width="30px" height="31px" viewBox="0 0 30 31" version="1.1" xmlns="http://www.w3.org/2000/svg" xmlns:xlink="http://www.w3.org/1999/xlink">
    <!-- Generator: Sketch 48.2 (47327) - http://www.bohemiancoding.com/sketch -->
    <title>Icon-Patient-Consent</title>
    <desc>Created with Sketch.</desc>
    <defs></defs>
    <g id="Artboard" stroke="none" stroke-width="1" fill="none" fill-rule="evenodd" transform="translate(-885.000000, -820.000000)">
        <g id="Icon-Patient-Consent" transform="translate(885.000000, 820.000000)" fill="#FFFFFF">
            <path d="M23.5340017,4.745 C23.7319355,4.74473592 23.921628,4.6657162 24.0612127,4.52538101 C24.2007974,4.38504582 24.2787989,4.19493239 24.2780017,3.997 L24.2780017,1.636 C24.2796639,0.735675309 23.5523196,0.00385779407 22.6520017,0 L6.90900168,0 C6.71101942,8.88481195e-05 6.52128299,0.0792957058 6.38200168,0.22 L0.218001678,6.42 C0.0780080632,6.56041308 -0.000418229438,6.75072275 1.67753342e-06,6.949 L1.67753342e-06,29.366 C-4.3906453e-06,30.2660953 0.727912427,30.9966949 1.62800168,31 L22.6520017,31 C23.5523196,30.9961422 24.2796639,30.2643247 24.2780017,29.364 L24.2780017,17.939 C24.2879835,17.6668697 24.1484968,17.4110282 23.9143481,17.2719996 C23.6801995,17.1329711 23.3888039,17.1329711 23.1546552,17.2719996 C22.9205065,17.4110282 22.7810199,17.6668697 22.7910017,17.939 L22.7910017,29.364 C22.7910036,29.440931 22.7289307,29.5034505 22.6520017,29.504 L1.62800168,29.504 C1.55107262,29.5034505 1.48899971,29.440931 1.48900168,29.364 L1.48900168,7.7 L6.02600168,7.7 C6.92648102,7.69614303 7.65411213,6.96448692 7.65300168,6.064 L7.65300168,1.5 L22.6530017,1.5 C22.7299307,1.50054951 22.7920036,1.56306898 22.7920017,1.64 L22.7920017,4 C22.7925455,4.41005722 23.12395,4.74280166 23.5340017,4.745 Z M6.16500168,6.059 C6.16500364,6.13593102 6.10293073,6.19845049 6.02600168,6.199 L2.54100168,6.199 L6.16500168,2.555 L6.16500168,6.055 L6.16500168,6.059 Z M29.2650017,6.078 L28.3890017,5.198 C27.9177008,4.72405762 27.2768922,4.45757639 26.6085017,4.45757639 C25.9401112,4.45757639 25.2993025,4.72405762 24.8280017,5.198 L17.8780017,12.187 L5.82000168,12.187 C5.40578812,12.187 5.07000168,12.5227864 5.07000168,12.937 C5.07000168,13.3512136 5.40578812,13.687 5.82000168,13.687 L16.3870017,13.687 L11.9090017,18.187 L5.82000168,18.187 C5.40578812,18.187 5.07000168,18.5227864 5.07000168,18.937 C5.07000168,19.3512136 5.40578812,19.687 5.82000168,19.687 L10.4200017,19.687 L10.4080017,19.7 C10.317443,19.7912849 10.2516988,19.9041859 10.2170017,20.028 L9.06800168,24.191 L5.82000168,24.191 C5.40578812,24.191 5.07000168,24.5267864 5.07000168,24.941 C5.07000168,25.3552136 5.40578812,25.691 5.82000168,25.691 L9.63400168,25.691 C9.63400168,25.691 9.79700168,25.673 9.82100168,25.666 L14.5210017,24.356 C14.6449536,24.3210987 14.757884,24.2549931 14.8490017,24.164 L29.2670017,9.664 C30.2510296,8.67054271 30.2492435,7.06925955 29.2630017,6.078 L29.2650017,6.078 Z M10.7000017,23.86 L11.3070017,21.66 L12.8870017,23.248 L10.7000017,23.86 Z M14.3160017,22.569 L11.9840017,20.225 L23.8840017,8.258 L26.2150017,10.602 L14.3160017,22.569 Z M28.2110017,8.6 L27.2730017,9.543 L24.9410017,7.198 L25.8790017,6.255 C26.0717461,6.06129579 26.3337404,5.95239285 26.6070017,5.95239285 C26.880263,5.95239285 27.1422572,6.06129579 27.3350017,6.255 L28.2110017,7.136 C28.6121035,7.5415806 28.6121035,8.1944194 28.2110017,8.6 Z"></path>
        </g>
    </g>
</svg>