<?xml version="1.0" encoding="UTF-8"?>
<svg width="38px" height="32px" viewBox="0 0 38 32" version="1.1" xmlns="http://www.w3.org/2000/svg" xmlns:xlink="http://www.w3.org/1999/xlink">
    <!-- Generator: Sketch 48.2 (47327) - http://www.bohemiancoding.com/sketch -->
    <title>Icon-Referral-Request</title>
    <desc>Created with Sketch.</desc>
    <defs></defs>
    <g id="Artboard" stroke="none" stroke-width="1" fill="none" fill-rule="evenodd" transform="translate(-837.000000, -958.000000)">
        <g id="Icon-Referral-Request" transform="translate(837.000000, 958.000000)" fill="#FFFFFF">
            <path d="M38,27.0195195 C38,27.5718043 37.5522847,28.0195195 37,28.0195195 L13.149,28.0195195 C13.605,29.0195195 14.891,29.9105195 18,30.0195195 C18,30.0195195 7.235,34.9435195 4.936,28.0195195 L3.929,28.0195195 C3.49393799,28.0223118 3.11586627,27.7212263 3.0212056,27.2965781 C2.92654494,26.8719298 3.14094283,26.4387737 3.536,26.2565195 C3.359,26.2905195 3.183,26.3275195 3.011,26.3755195 C3.011,26.3035195 3,26.2345195 3,26.1625195 C3,25.7715195 3.051,25.3945195 3.084,25.0125195 L0,25.0125195 L9,14.0195195 L9.681,14.8515195 C9.948,14.7025195 10.202,14.5365195 10.481,14.4055195 C8.22884637,11.905568 7.94084978,8.20307426 9.77933837,5.38493423 C11.617827,2.5667942 15.1225154,1.3385594 18.318,2.39251953 C21.3671428,-0.712030253 26.3393905,-0.807461632 29.5054139,2.17780168 C32.6714373,5.16306499 32.8681447,10.1323367 29.948,13.3585195 C34.859943,15.6605283 37.9980533,20.5949067 38,26.0195195 L37,26.0195195 C37.2652165,26.0195195 37.5195704,26.1248764 37.7071068,26.3124127 C37.8946432,26.4999491 38,26.754303 38,27.0195195 Z M12.978,26.4375195 C12.961,26.5375195 12.951,26.6375195 12.942,26.7375195 C12.9749427,26.6691735 12.9946238,26.5951997 13,26.5195195 C12.9955964,26.4914831 12.9882215,26.463995 12.978,26.4375195 Z M12.851,21.6745195 C12.3259045,21.2530033 11.6733458,21.0220871 11,21.0195195 C10.986,21.0195195 10.973,21.0195195 10.959,21.0195195 C11.103,20.6455195 11.268,20.2825195 11.441,19.9195195 L9.25,17.3195195 C7.04449918,18.9989634 5.54645882,21.4421959 5.05,24.1695195 L6,24.1695195 C5.96492947,25.468715 6.33542401,26.7465717 7.06,27.8255195 C7.69808761,27.9585985 8.3481827,28.0256186 9,28.0255195 C9.89799165,28.0370775 10.792225,27.907498 11.65,27.6415195 C11.5760019,26.4741536 11.6942424,25.3025595 12,24.1735195 L15,24.1735195 L12.87,21.6365195 C12.864,21.6455195 12.857,21.6595195 12.851,21.6745195 Z M15,31.0195195 C13.2655988,31.0877266 11.7969089,29.752554 11.7,28.0195195 L7.2,28.0195195 C9.645,31.2565195 15,31.0195195 15,31.0195195 Z M3.159,24.1675195 C3.172,24.0795195 3.201,23.9965195 3.216,23.9095195 L3,24.1675195 L3.159,24.1675195 Z M16,3.87651953 C13.6628482,3.86662485 11.570035,5.32220576 10.7661104,7.51676305 C9.96218589,9.71132034 10.6195085,12.1743489 12.41,13.6765195 C12.671,13.6025195 12.946,13.5625195 13.21,13.5025195 L13.21,16.3195195 C12.8138462,16.1622745 12.4317998,15.9715859 12.068,15.7495195 C11.6570678,15.9118039 11.256335,16.0988125 10.868,16.3095195 L12.432,18.2195195 C13.8318732,16.1222921 15.774082,14.4437675 18.052,13.3625195 C15.7197232,10.7834068 15.332575,6.98846285 17.096,3.99151953 C16.7353362,3.91724526 16.3682257,3.87872546 16,3.87651953 Z M28.23,14.8015195 C27.838202,15.0405022 27.4267062,15.245581 27,15.4145195 L27,12.3855195 C27.289,12.4495195 27.585,12.4915195 27.867,12.5725195 C29.7944722,10.9544682 30.5017231,8.3022886 29.6358546,5.93934319 C28.7699862,3.57639778 26.5165713,2.00911302 24,2.01951953 C23.819,2.01951953 23.648,2.05051953 23.472,2.06751953 C23.314,2.05251953 23.162,2.01951953 23,2.01951953 C20.2385763,2.01951953 18,4.25809578 18,7.01951953 C18,7.16651953 18.031,7.30351953 18.043,7.44751953 C18.025,7.63651953 18,7.82451953 18,8.01951953 C18.005133,9.77739837 18.7856473,11.4434469 20.133,12.5725195 L20,13.0195195 L18.786,15.2595195 C16.7072699,16.2731011 14.9649782,17.8647044 13.768,19.8435195 L18,25.0125195 L13.5,25.0125195 C13.2880147,25.3827896 13.1291271,25.7810186 13.028,26.1955195 C13.096313,26.1413714 13.1608001,26.0825645 13.221,26.0195195 L27.132,26.0195195 C27.4191936,26.0692832 27.7128064,26.0692832 28,26.0195195 C28.3059977,25.8428517 28.6830023,25.8428517 28.989,26.0195195 L36,26.0195195 C35.9974167,21.0274172 32.9024809,16.5590788 28.23,14.8015195 Z"></path>
        </g>
    </g>
</svg>