<?xml version="1.0" encoding="UTF-8"?>
<svg width="31px" height="31px" viewBox="0 0 31 31" version="1.1" xmlns="http://www.w3.org/2000/svg" xmlns:xlink="http://www.w3.org/1999/xlink">
    <!-- Generator: Sketch 48.2 (47327) - http://www.bohemiancoding.com/sketch -->
    <title>Icon-Referral</title>
    <desc>Created with Sketch.</desc>
    <defs></defs>
    <g id="Artboard" stroke="none" stroke-width="1" fill="none" fill-rule="evenodd" transform="translate(-889.000000, -898.000000)">
        <g id="Icon-Referral" transform="translate(889.000000, 898.000000)" fill="#FFFFFF">
            <path d="M24,31.0136657 C21.7129986,31.0129598 19.571331,29.8922547 18.267,28.0136657 L1,28.0136657 C0.44771525,28.0136657 0,27.5659504 0,27.0136657 C0,26.4613809 0.44771525,26.0136657 1,26.0136657 L0,26.0136657 C0.00255682808,20.588665 3.14144663,15.6542865 8.054,13.3526657 C5.1705985,10.1499131 5.3423104,5.23871473 8.44235538,2.24516345 C11.5424004,-0.748387818 16.4565996,-0.748387818 19.5566446,2.24516345 C22.6566896,5.23871473 22.8284015,10.1499131 19.945,13.3526657 C21.8010411,14.232754 23.4420717,15.5082388 24.753,17.0896657 C28.451873,17.4769372 31.1977102,20.696026 30.9968778,24.409691 C30.7960455,28.1233559 27.7190655,31.027551 24,31.0136657 Z M23.125,27.6136657 C23.1589654,27.6940936 23.2078224,27.7673792 23.269,27.8296657 C23.3309896,27.8923943 23.4051846,27.9417441 23.487,27.9746657 C23.6610116,28.0440157 23.8549884,28.0440157 24.029,27.9746657 C24.1113343,27.9410481 24.1863817,27.8918089 24.25,27.8296657 C24.3123915,27.767328 24.3628851,27.6941293 24.399,27.6136657 C24.4723714,27.441837 24.4723714,27.2474943 24.399,27.0756657 C24.3634274,26.9940113 24.3128913,26.9197333 24.25,26.8566657 C24.1859753,26.7942678 24.1110758,26.7441089 24.029,26.7086657 C23.7703032,26.6024401 23.473111,26.6621155 23.2754732,26.859972 C23.0778353,27.0578285 23.0184885,27.3550865 23.125,27.6136657 Z M18.225,14.7996657 C17.8347423,15.0385655 17.424943,15.2439669 17,15.4136657 L17,12.3836657 C17.288,12.4476657 17.584,12.4896657 17.866,12.5706657 C19.793287,10.946836 20.5004205,8.29169789 19.6360807,5.92438411 C18.7717409,3.55707032 16.5201702,1.98219708 14,1.98219708 C11.4798298,1.98219708 9.22825912,3.55707032 8.36391929,5.92438411 C7.49957946,8.29169789 8.20671303,10.946836 10.134,12.5706657 C10.415,12.4896657 10.712,12.4476657 11,12.3836657 L11,15.4136657 C10.5736845,15.2441728 10.1625394,15.0387675 9.771,14.7996657 C5.09949391,16.5563817 2.00440447,21.0227739 2,26.0136657 L17.325,26.0136657 C16.7488432,24.2125239 16.9429074,22.2533266 17.8612179,20.6002162 C18.7795284,18.9471058 20.34038,17.7471652 22.174,17.2846657 C21.0343185,16.2051311 19.6940399,15.3595156 18.229,14.7956657 L18.225,14.7996657 Z M25.848,21.0626657 C25.7482593,20.8481762 25.603273,20.6578177 25.423,20.5046657 C25.2326669,20.3467415 25.0141511,20.2262864 24.779,20.1496657 C24.5176909,20.0637206 24.2440686,20.0211571 23.969,20.0236657 C23.761988,20.022231 23.5554358,20.0433556 23.353,20.0866657 C23.1710329,20.1261565 22.9934797,20.1837776 22.823,20.2586657 C22.6645733,20.3285592 22.5129309,20.4129166 22.37,20.5106657 C22.2369493,20.6018734 22.1103182,20.7021092 21.991,20.8106657 L22.251,21.2206657 C22.2938731,21.2996562 22.3771381,21.3482274 22.467,21.3466657 C22.5303043,21.3379234 22.5891631,21.3091948 22.635,21.2646657 C22.7199699,21.1984112 22.8095275,21.1382606 22.903,21.0846657 C23.0318472,21.0107244 23.1678805,20.950079 23.309,20.9036657 C23.4959876,20.8453576 23.691173,20.8176669 23.887,20.8216657 C24.0450972,20.8207253 24.2023564,20.8446854 24.353,20.8926657 C24.4911875,20.936353 24.6198059,21.0059223 24.732,21.0976657 C24.8386359,21.1872747 24.9251842,21.2983564 24.986,21.4236657 C25.0501294,21.5563909 25.0823204,21.7022778 25.08,21.8496657 C25.0857526,22.0518067 25.0399838,22.2520881 24.947,22.4316657 C24.8598327,22.5921221 24.7492905,22.7387252 24.619,22.8666657 C24.4879066,22.9939072 24.3464148,23.1099773 24.196,23.2136657 C24.0523293,23.3117131 23.9141233,23.4175375 23.782,23.5306657 C23.6651797,23.6295019 23.5640289,23.7454881 23.482,23.8746657 C23.4027638,24.0028034 23.3696048,24.1541355 23.388,24.3036657 L23.454,25.2116657 L24.128,25.2116657 L24.228,24.3746657 C24.2445514,24.2503107 24.301877,24.1349561 24.391,24.0466657 C24.4956285,23.9391066 24.6090191,23.8404334 24.73,23.7516657 L25.153,23.4376657 C25.3059936,23.3230459 25.4449512,23.1908011 25.567,23.0436657 C25.6983939,22.8851849 25.8046355,22.707441 25.882,22.5166657 C25.9701446,22.2884854 26.0126151,22.0452146 26.007,21.8006657 C26.0115962,21.5448415 25.9586236,21.2912566 25.852,21.0586657 L25.848,21.0626657 Z"></path>
        </g>
    </g>
</svg>