<svg xmlns="http://www.w3.org/2000/svg" width="27" height="35" viewBox="0 0 27 35">
  <metadata><?xpacket begin="﻿" id="W5M0MpCehiHzreSzNTczkc9d"?>
<x:xmpmeta xmlns:x="adobe:ns:meta/" x:xmptk="Adobe XMP Core 5.6-c140 79.160451, 2017/05/06-01:08:21        ">
   <rdf:RDF xmlns:rdf="http://www.w3.org/1999/02/22-rdf-syntax-ns#">
      <rdf:Description rdf:about=""/>
   </rdf:RDF>
</x:xmpmeta>
                                                                                                    
                                                                                                    
                                                                                                    
                                                                                                    
                                                                                                    
                                                                                                    
                                                                                                    
                                                                                                    
                                                                                                    
                                                                                                    
                                                                                                    
                                                                                                    
                                                                                                    
                                                                                                    
                                                                                                    
                                                                                                    
                                                                                                    
                                                                                                    
                                                                                                    
                                                                                                    
                           
<?xpacket end="w"?></metadata>
<defs>
    <style>
      .cls-1 {
        fill: #8092a6;
        fill-rule: evenodd;
      }
    </style>
  </defs>
  <path id="Icon-Eligibility-Benefits" class="cls-1" d="M416.9,297.153h-1.21a3.1,3.1,0,0,0-2.922-2.052h-1.139a5.079,5.079,0,0,0-1.45-2.608,5.279,5.279,0,0,0-7.358,0,5.073,5.073,0,0,0-1.451,2.608h-1.138a3.1,3.1,0,0,0-2.922,2.052H396.1a3.091,3.091,0,0,0-3.1,3.076v22.695A3.091,3.091,0,0,0,396.1,326h20.8a3.092,3.092,0,0,0,3.1-3.076V300.229A3.092,3.092,0,0,0,416.9,297.153Zm-17.7,1.025a1.029,1.029,0,0,1,1.033-1.025H402.3a1.029,1.029,0,0,0,1.032-1.026,3.17,3.17,0,0,1,6.337,0,1.03,1.03,0,0,0,1.033,1.026h2.067a1.029,1.029,0,0,1,1.033,1.025V299.2H399.2v-1.025Zm18.734,24.746a1.03,1.03,0,0,1-1.033,1.025H396.1a1.03,1.03,0,0,1-1.033-1.025V300.229A1.03,1.03,0,0,1,396.1,299.2h1.033v1.026a1.03,1.03,0,0,0,1.034,1.025h16.668a1.029,1.029,0,0,0,1.033-1.025V299.2H416.9a1.03,1.03,0,0,1,1.033,1.026v22.695ZM406.441,295.1a1.036,1.036,0,1,0,0,2.072A1.037,1.037,0,1,0,406.441,295.1Zm-1.346,7.688a1.039,1.039,0,0,0-1.461,0l-3.4,3.377L398.9,304.84a1.039,1.039,0,0,0-1.461,0,1.021,1.021,0,0,0,0,1.45l2.066,2.051a1.041,1.041,0,0,0,1.462,0l4.132-4.1A1.019,1.019,0,0,0,405.1,302.789Zm0,6.153a1.038,1.038,0,0,0-1.461,0l-3.4,3.376-1.336-1.325a1.038,1.038,0,0,0-1.461,0,1.021,1.021,0,0,0,0,1.45l2.066,2.05a1.039,1.039,0,0,0,1.462,0l4.132-4.1A1.019,1.019,0,0,0,405.1,308.942Zm9.739-2.352h-6.2a1.026,1.026,0,1,0,0,2.051h6.2A1.026,1.026,0,1,0,414.834,306.59Zm0,6.153h-6.2a1.026,1.026,0,1,0,0,2.051h6.2A1.026,1.026,0,1,0,414.834,312.743Zm0,6.152h-6.2a1.026,1.026,0,1,0,0,2.051h6.2A1.026,1.026,0,1,0,414.834,318.9Zm-9.739-3.117a1.038,1.038,0,0,0-1.461,0l-3.4,3.376-1.336-1.326a1.039,1.039,0,0,0-1.461,0,1.022,1.022,0,0,0,0,1.451l2.066,2.05a1.039,1.039,0,0,0,1.462,0l4.132-4.1A1.019,1.019,0,0,0,405.1,315.778Z" transform="translate(-393 -291)"/>
</svg>
