<svg xmlns="http://www.w3.org/2000/svg" width="30" height="31" viewBox="0 0 30 31">
  <metadata><?xpacket begin="﻿" id="W5M0MpCehiHzreSzNTczkc9d"?>
<x:xmpmeta xmlns:x="adobe:ns:meta/" x:xmptk="Adobe XMP Core 5.6-c140 79.160451, 2017/05/06-01:08:21        ">
   <rdf:RDF xmlns:rdf="http://www.w3.org/1999/02/22-rdf-syntax-ns#">
      <rdf:Description rdf:about=""/>
   </rdf:RDF>
</x:xmpmeta>
                                                                                                    
                                                                                                    
                                                                                                    
                                                                                                    
                                                                                                    
                                                                                                    
                                                                                                    
                                                                                                    
                                                                                                    
                                                                                                    
                                                                                                    
                                                                                                    
                                                                                                    
                                                                                                    
                                                                                                    
                                                                                                    
                                                                                                    
                                                                                                    
                                                                                                    
                                                                                                    
                           
<?xpacket end="w"?></metadata>
<defs>
    <style>
      .cls-1 {
        fill: #8596a8;
        fill-rule: evenodd;
      }
    </style>
  </defs>
  <path id="Icon-Patient-Consent" class="cls-1" d="M417.534,840.745a0.745,0.745,0,0,0,.744-0.748v-2.361A1.633,1.633,0,0,0,416.652,836H400.909a0.742,0.742,0,0,0-.527.22l-6.164,6.2a0.747,0.747,0,0,0-.218.529v22.417A1.634,1.634,0,0,0,395.628,867h21.024a1.633,1.633,0,0,0,1.626-1.636V853.939a0.744,0.744,0,1,0-1.487,0v11.425a0.14,0.14,0,0,1-.139.14H395.628a0.14,0.14,0,0,1-.139-0.14V843.7h4.537a1.634,1.634,0,0,0,1.627-1.636V837.5h15a0.14,0.14,0,0,1,.139.14V840A0.746,0.746,0,0,0,417.534,840.745Zm-17.369,1.314a0.14,0.14,0,0,1-.139.14h-3.485l3.624-3.644v3.5Zm23.1,0.019-0.876-.88a2.511,2.511,0,0,0-3.561,0l-6.95,6.989H399.82a0.748,0.748,0,0,0,0,1.5h10.567l-4.478,4.5H399.82a0.748,0.748,0,0,0,0,1.5h4.6l-0.012.013a0.755,0.755,0,0,0-.191.328l-1.149,4.163H399.82a0.748,0.748,0,0,0,0,1.5h3.814s0.163-.018.187-0.025l4.7-1.31a0.753,0.753,0,0,0,.328-0.192l14.418-14.5A2.545,2.545,0,0,0,423.263,842.078ZM404.7,859.86l0.607-2.2,1.58,1.588Zm3.616-1.291-2.332-2.344,11.9-11.967,2.331,2.344ZM422.211,844.6l-0.938.943-2.332-2.345,0.938-.943a1.027,1.027,0,0,1,1.456,0l0.876,0.881A1.041,1.041,0,0,1,422.211,844.6Z" transform="translate(-394 -836)"/>
</svg>
