<?xml version="1.0" encoding="UTF-8"?>
<svg width="27px" height="36px" viewBox="0 0 27 36" version="1.1" xmlns="http://www.w3.org/2000/svg" xmlns:xlink="http://www.w3.org/1999/xlink">
    <!-- Generator: Sketch 48.2 (47327) - http://www.bohemiancoding.com/sketch -->
    <title>Icon-Provider-Inquiry-Summary</title>
    <desc>Created with Sketch.</desc>
    <defs></defs>
    <g id="Artboard" stroke="none" stroke-width="1" fill="none" fill-rule="evenodd" transform="translate(-1051.000000, -974.000000)">
        <g id="Icon-Provider-Inquiry-Summary" transform="translate(1051.000000, 974.000000)" fill="#FFFFFF">
            <path d="M27,7.28502174 C26.9980118,7.06489128 26.9100947,6.85424916 26.755,6.69802174 L20.301,0.246021739 C20.1419899,0.0870162192 19.9258652,-0.0015948967 19.701,2.17385525e-05 L1.775,2.17385525e-05 C0.795703074,0.000571747682 0.00165406359,0.793726055 0,1.77302174 L0,34.2250217 C0.00110309606,35.204708 0.795313258,35.9984707 1.775,35.9990217 L25.225,35.9990217 C26.2046867,35.9984707 26.9988969,35.204708 27,34.2250217 L27,7.29402174 C27.0004853,7.29104136 27.0004853,7.28800211 27,7.28502174 Z M20.548,2.87702174 L24.123,6.45102174 L20.637,6.45102174 C20.5882345,6.45102482 20.5485479,6.41178411 20.548,6.36302174 L20.548,2.87702174 Z M25.316,34.2250217 C25.3154521,34.2737841 25.2757655,34.3130248 25.227,34.3130217 L1.777,34.3130217 C1.72823455,34.3130248 1.68854793,34.2737841 1.688,34.2250217 L1.688,1.77302174 C1.68854793,1.72425936 1.72823455,1.68501866 1.777,1.68502174 L18.86,1.68502174 L18.86,6.36302174 C18.8616529,7.34247972 19.6555412,8.13592076 20.635,8.13702174 L25.314,8.13702174 L25.314,34.2250217 L25.316,34.2250217 Z M21.742,24.1800217 C21.8974749,24.2469138 21.9992475,24.3987898 22.002,24.5680217 C21.9993777,24.6849921 21.9503811,24.7961263 21.8657955,24.8769609 C21.7812099,24.9577954 21.667969,25.0017042 21.551,24.9990217 L5.486,24.9990217 C5.31490843,25.0069623 5.15330302,24.9202068 5.0653824,24.7732192 C4.97746178,24.6262317 4.97746178,24.4428118 5.0653824,24.2958243 C5.15330302,24.1488367 5.31490843,24.0620812 5.486,24.0700217 L5,24.0700217 C5.02931404,21.5102321 6.56198425,19.2073089 8.912,18.1920217 C8.27365122,17.5241448 7.91574332,16.6368912 7.912,15.7130217 C7.93454794,14.7047595 8.35697505,13.7468147 9.08623395,13.0501923 C9.81549286,12.35357 10.791762,11.9754146 11.8,11.9990217 C12.8281431,11.9938454 13.8180957,12.3882488 14.561,13.0990217 C14.9250129,12.9844483 15.3043818,12.9261098 15.686,12.9260217 C17.6343899,12.8830085 19.2492165,14.4266717 19.294,16.3750217 C19.2907823,17.2320803 18.9590016,18.0552687 18.367,18.6750217 C20.5507394,19.6180505 21.9744397,21.7584996 22,24.1370217 C22,24.1700217 22,24.2020217 22,24.2370217 C21.911,24.2130217 21.826,24.1990217 21.74,24.1800217 L21.742,24.1800217 Z M18.353,24.1370217 L18.411,24.1370217 L18.322,24.1170217 C18.331,24.1230217 18.34,24.1310217 18.351,24.1370217 L18.353,24.1370217 Z M13.68,17.8270217 C14.3281923,17.3160405 14.7092993,16.5383763 14.716,15.7130217 C14.7135549,15.6243864 14.7065456,15.5359359 14.695,15.4480217 C14.701,15.3810217 14.716,15.3170217 14.716,15.2480217 C14.6859623,13.9368379 13.5992062,12.8979742 12.288,12.9270217 C12.209,12.9270217 12.135,12.9420217 12.059,12.9490217 C11.973,12.9410217 11.89,12.9270217 11.802,12.9270217 C10.2284311,12.8918283 8.92404337,14.138472 8.888,15.7120217 C8.89470073,16.5373763 9.27580769,17.3150405 9.924,17.8260217 C10.061,17.7890217 10.205,17.7690217 10.345,17.7390217 L10.345,19.1460217 C10.1374316,19.0678508 9.9367374,18.972521 9.745,18.8610217 C7.51295341,19.6254144 6.00199836,21.709932 5.97,24.0690217 L9.376,24.0690217 C9.52553957,23.9872007 9.70646043,23.9872007 9.856,24.0690217 C9.99566641,24.0927453 10.1383336,24.0927453 10.278,24.0690217 L17.628,24.0690217 C17.6022169,21.8998796 16.312338,19.9455177 14.328,19.0690217 L13.738,18.0290217 L13.68,17.8270217 Z M17.588,19.2940217 C17.411182,19.3979049 17.2258471,19.4865579 17.034,19.5590217 L17.034,18.2590217 C17.164,18.2860217 17.298,18.3050217 17.425,18.3390217 C18.0265875,17.8647311 18.3804339,17.1430609 18.387,16.3770217 C18.3531387,14.9158413 17.1422258,13.75818 15.681,13.7900217 C15.5017907,13.7901593 15.3229956,13.8072352 15.147,13.8410217 C15.4949775,14.4035059 15.6798512,15.0516025 15.681,15.7130217 C15.6772567,16.6368912 15.3193488,17.5241448 14.681,18.1920217 C17.0310157,19.2073089 18.563686,21.5102321 18.593,24.0700217 C18.593,24.0930217 18.593,24.1150217 18.593,24.1370217 L21.093,24.1370217 C21.065242,21.9469947 19.6643842,20.010609 17.593,19.2990217 L17.588,19.2940217 Z"></path>
        </g>
    </g>
</svg>