<?xml version="1.0" encoding="UTF-8"?>
<svg width="35px" height="28px" viewBox="0 0 35 28" version="1.1" xmlns="http://www.w3.org/2000/svg" xmlns:xlink="http://www.w3.org/1999/xlink">
    <!-- Generator: Sketch 48.2 (47327) - http://www.bohemiancoding.com/sketch -->
    <title>Icon-Provider-Inquiry</title>
    <desc>Created with Sketch.</desc>
    <defs></defs>
    <g id="Artboard" stroke="none" stroke-width="1" fill="none" fill-rule="evenodd" transform="translate(-948.000000, -966.000000)">
        <g id="Icon-Provider-Inquiry" transform="translate(948.000000, 966.000000)" fill="#FFFFFF">
            <path d="M34.464,26.2259942 C34.8590572,26.4082484 35.0734551,26.8414046 34.9787944,27.2660528 C34.8841337,27.690701 34.506062,27.9917865 34.071,27.9889942 L1,27.9889942 C0.44771525,27.9889942 0,27.541279 0,26.9889942 C0,26.4367095 0.44771525,25.9889942 1,25.9889942 L0,25.9889942 C0.00231040114,20.5639217 3.14127715,15.6294223 8.054,13.3279942 C5.16224521,10.0981753 5.37145352,5.15215811 8.52562319,2.17807172 C11.6797929,-0.796014663 16.6295603,-0.714428096 19.684,2.36199424 C22.8794846,1.30803411 26.384173,2.53626891 28.2226616,5.35440894 C30.0611502,8.17254897 29.7731536,11.8750427 27.521,14.3749942 C32.0826792,16.5124195 34.9974131,21.0943859 35,26.1319942 C35,26.2039942 34.99,26.2729942 34.989,26.3449942 C34.817,26.2969942 34.641,26.2599942 34.464,26.2259942 Z M27.487,26.1319942 L27.607,26.1319942 C27.545,26.1189942 27.484,26.1019942 27.423,26.0899942 C27.446,26.1009942 27.464,26.1189942 27.487,26.1319942 Z M17.867,12.5419942 C19.2143527,11.4129216 19.994867,9.74687308 20,7.98899424 C20,7.79399424 19.975,7.60599424 19.957,7.41699424 C19.969,7.27299424 20,7.13599424 20,6.98899424 C20,4.22757049 17.7614237,1.98899424 15,1.98899424 C14.838,1.98899424 14.686,2.02199424 14.528,2.03699424 C14.352,2.01999424 14.181,1.98899424 14,1.98899424 C11.4834287,1.97858772 9.23001382,3.54587249 8.36414536,5.9088179 C7.49827689,8.27176331 8.20552783,10.9239429 10.133,12.5419942 C10.415,12.4609942 10.711,12.4189942 11,12.3549942 L11,15.3889942 C10.5732938,15.2200557 10.161798,15.0149769 9.77,14.7759942 C5.09922963,16.5329084 2.00466364,20.9987216 2,25.9889942 L9.011,25.9889942 C9.31699766,25.8123264 9.69400234,25.8123264 10,25.9889942 C10.2871936,26.0387579 10.5808064,26.0387579 10.868,25.9889942 L26,25.9889942 C25.9919198,21.3967977 23.3545642,17.2149606 19.214,15.2289942 L18,12.9889942 L17.867,12.5419942 Z M25.927,15.7149942 C25.5632002,15.9370606 25.1811538,16.1277493 24.785,16.2849942 L24.785,13.4709942 C25.054,13.5309942 25.329,13.5709942 25.585,13.6449942 C27.3754915,12.1428237 28.0328141,9.67979505 27.2288896,7.48523776 C26.424965,5.29068046 24.3321518,3.83509956 21.995,3.84499424 C21.6255696,3.84562027 21.2571077,3.88280142 20.895,3.95599424 C22.658425,6.95293755 22.2712768,10.7478816 19.939,13.3269942 C24.8546102,15.6267354 27.9965586,20.5620226 28,25.9889942 C28,26.0369942 28,26.0889942 27.993,26.1319942 L33.143,26.1319942 C33.1409749,21.4959841 30.2664889,17.3463832 25.927,15.7149942 Z"></path>
        </g>
    </g>
</svg>