<svg xmlns="http://www.w3.org/2000/svg" width="31.062" height="32.688" viewBox="0 0 31.062 32.688">
  <metadata><?xpacket begin="﻿" id="W5M0MpCehiHzreSzNTczkc9d"?>
<x:xmpmeta xmlns:x="adobe:ns:meta/" x:xmptk="Adobe XMP Core 5.6-c140 79.160451, 2017/05/06-01:08:21        ">
   <rdf:RDF xmlns:rdf="http://www.w3.org/1999/02/22-rdf-syntax-ns#">
      <rdf:Description rdf:about=""/>
   </rdf:RDF>
</x:xmpmeta>
                                                                                                    
                                                                                                    
                                                                                                    
                                                                                                    
                                                                                                    
                                                                                                    
                                                                                                    
                                                                                                    
                                                                                                    
                                                                                                    
                                                                                                    
                                                                                                    
                                                                                                    
                                                                                                    
                                                                                                    
                                                                                                    
                                                                                                    
                                                                                                    
                                                                                                    
                                                                                                    
                           
<?xpacket end="w"?></metadata>
<defs>
    <style>
      .cls-1 {
        fill: #fff;
        fill-rule: evenodd;
      }
    </style>
  </defs>
  <path id="print-icon" class="cls-1" d="M316.708,334.348h-0.841v-1.871a4.84,4.84,0,0,0-4.833-4.834H300.89a4.84,4.84,0,0,0-4.832,4.834v1.871h-0.766a4.841,4.841,0,0,0-4.833,4.834v7.8a4.841,4.841,0,0,0,4.833,4.834h0.759v6.13a2.419,2.419,0,0,0,2.413,2.415h14.984a2.422,2.422,0,0,0,2.415-2.415v-6.13h0.845a4.839,4.839,0,0,0,4.831-4.834v-7.8A4.839,4.839,0,0,0,316.708,334.348Zm-18.826-1.871a3.009,3.009,0,0,1,3-3h10.137a3.011,3.011,0,0,1,3,3v1.871H297.882v-1.871Zm16.149,25.48a0.588,0.588,0,0,1-.583.584H298.464a0.588,0.588,0,0,1-.582-0.584v-10.11h16.149v10.11Zm5.678-10.97a3.007,3.007,0,0,1-3,3h-0.841v-2.143h1.208a0.915,0.915,0,0,0,0-1.83H294.709a0.915,0.915,0,1,0,0,1.83h1.349v2.143h-0.766a3.009,3.009,0,0,1-3-3v-7.8a3.009,3.009,0,0,1,3-3h21.416a3.008,3.008,0,0,1,3,3v7.8ZM300.1,352.35h11.649a0.916,0.916,0,0,0,0-1.831H300.1A0.916,0.916,0,1,0,300.1,352.35Zm11.725,1.912H300.164a0.916,0.916,0,0,0,0,1.831h11.65A0.916,0.916,0,0,0,311.822,354.262Zm4.866-16.32H314.83a0.915,0.915,0,0,0,0,1.83h1.858A0.915,0.915,0,0,0,316.688,337.942Z" transform="translate(-290.469 -327.656)"/>
</svg>
