<!-- Generator: Adobe Illustrator 17.0.0, by WM Graphics (Waqas Mehmood)-->
<svg version="1.1"
	 xmlns="http://www.w3.org/2000/svg" xmlns:xlink="http://www.w3.org/1999/xlink" xmlns:a="http://ns.adobe.com/AdobeSVGViewerExtensions/3.0/"
	 x="0px" y="0px" width="24px" height="32px" viewBox="0 0 24 32" style="enable-background:new 0 0 24 32;" xml:space="preserve">
<style type="text/css">
	.st0{fill:#404040;}
</style>
<defs>
</defs>
<g>
	<path class="st0" d="M22.5,29h-21C0.7,29,0,29.6,0,30.5S0.7,32,1.5,32h21c0.8,0,1.5-0.7,1.5-1.5S23.3,29,22.5,29z"/>
	<path class="st0" d="M10.9,25.8c0.6,0.6,1.5,0.6,2.1,0l9.2-9.2c0.6-0.6,0.6-1.5,0-2.1c-0.6-0.6-1.5-0.6-2.1,0l-6.6,6.6V1.5
		C13.5,0.7,12.8,0,12,0s-1.5,0.7-1.5,1.5v19.7l-6.6-6.6c-0.6-0.6-1.5-0.6-2.1,0c-0.6,0.6-0.6,1.5,0,2.1L10.9,25.8z"/>
</g>
</svg>
