<!-- Generator: Adobe Illustrator 22.1.0, SVG Export Plug-In  -->
<svg version="1.1"
	 xmlns="http://www.w3.org/2000/svg" xmlns:xlink="http://www.w3.org/1999/xlink" xmlns:a="http://ns.adobe.com/AdobeSVGViewerExtensions/3.0/"
	 x="0px" y="0px" width="29.5px" height="37.5px" viewBox="0 0 29.5 37.5" style="enable-background:new 0 0 29.5 37.5;"
	 xml:space="preserve">
<style type="text/css">
	.st0{fill:#8596A8;}
</style>
<defs>
</defs>
<path class="st0" d="M29.5,7.9c0-0.1,0-0.2,0-0.2c0,0,0,0,0-0.1c0-0.1-0.1-0.2-0.1-0.2l-7.2-7.2c-0.1-0.1-0.1-0.1-0.2-0.1
	c0,0-0.1,0-0.1,0c-0.1,0-0.1,0-0.2,0c0,0,0,0-0.1,0H2.3C1,0,0,1,0,2.3v33c0,1.2,1,2.3,2.3,2.3h25c1.2,0,2.3-1,2.3-2.3L29.5,7.9
	C29.5,7.9,29.5,7.9,29.5,7.9z M22.3,2.6l4.6,4.6H23c-0.4,0-0.8-0.3-0.8-0.8V2.6z M28,35.2c0,0.4-0.3,0.8-0.8,0.8h-25
	c-0.4,0-0.8-0.3-0.8-0.8v-33c0-0.4,0.3-0.8,0.8-0.8h18.5v5c0,1.2,1,2.3,2.3,2.3h5V35.2z M16.4,11c-0.4,0-0.6,0.3-0.6,0.6v6.7
	c0,0.4,0.3,0.6,0.6,0.6h6.7c0.4,0,0.6-0.3,0.6-0.6C23.8,14.3,20.5,11,16.4,11z M17.1,17.7v-5.4c2.8,0.3,5.1,2.5,5.4,5.4H17.1z
	 M20.6,20.2h-6.1v-6.1c0-0.4-0.3-0.6-0.6-0.6c-4.1,0-7.4,3.3-7.4,7.4s3.3,7.4,7.4,7.4s7.4-3.3,7.4-7.4C21.2,20.5,21,20.2,20.6,20.2z
	 M13.9,26.9c-3.3,0-6.1-2.7-6.1-6.1c0-3.1,2.4-5.7,5.4-6v6c0,0.4,0.3,0.6,0.6,0.6h6C19.6,24.6,17,26.9,13.9,26.9z"/>
</svg>
